<?xml version="1.0" encoding="utf-8"?>
<!-- Generator: Adobe Illustrator 24.0.0, SVG Export Plug-In . SVG Version: 6.00 Build 0)  -->
<svg version="1.1" id="gray" xmlns="http://www.w3.org/2000/svg" xmlns:xlink="http://www.w3.org/1999/xlink" x="0px" y="0px"
	 viewBox="0 0 4096 4096" style="enable-background:new 0 0 4096 4096;" xml:space="preserve">
<style type="text/css">
	.st0{fill:#53565A;}
</style>
<path class="st0" d="M2374.52,2749.98c-36.46-13.39-63.3-45.26-63.3-45.26c2.1,1.08,53.08-71.84,63.19-97.66
	c0.03-0.07,0.06-0.15,0.09-0.22l-0.02-148.37l-125.49-0.19l-0.57,47.49c0,0,61.95-4.02,75.35,10.63c12.26,13.4,18.27,25.8,9.1,57.73
	c-14.94,51.99-53.62,98.71-53.62,98.71s-53.61-74.68-73.28-106.12c-28.6-45.7-64.98-101.36-64.98-101.36s46.81-16.97,77.23-43.4
	c43.79-38.04,71-66.93,72.7-126.64c2.49-87.51-65.25-124.49-147.64-123.51c-80.43,0.96-165.68,71.95-148.21,173.68
	c10.91,63.57,33.23,102.08,38.39,110.59c0.57,0.94,0.21,2.15-0.77,2.63c-5.99,2.92-26.9,12.78-50.85,28.39l16.89,62.63
	c22.17-29.09,55.06-47.09,55.06-47.09s46.43,82.87,65.11,114.89c19.28,33.06,93.59,122.75,93.45,122.81c0,0-42.12,35.58-99.7,35.23
	c-19.59-0.12-39.52-6.29-57.81-17.86l22.85,84.72l-9.26-0.01c3.32,0.22,6.69,0.41,10.13,0.55c91.4,3.83,165.26-68.55,165.45-68.55
	s67.02,69.11,130.53,68.17L2374.52,2749.98z M2082.89,2309.11c-4.72-59.36,24.7-93.91,73.02-86.94
	c37.15,5.36,63.66,38.17,56.68,98.81c-7.28,63.19-93.06,98.81-93.06,98.81S2086.67,2356.54,2082.89,2309.11z"/>
<g id="text-gra">
	<g>
		<path class="st0" d="M3891.24,3043.25h-51.07v19.18h29.21v31.67c-14.5,4.68-22.08,6.69-33.23,6.69c-36.8,0-61.1-25.2-61.1-58.87
			c0-35.9,28.77-58.65,59.1-58.65c8.47,0,28.99,1.34,53.97,15.83v-22.3c-16.28-6.91-32.11-12.93-53.52-12.93
			c-52.18,0-82.29,39.25-82.29,79.39c0,34.57,24.31,76.71,83.18,76.71c25.42,0,44.16-7.36,55.75-12.49V3043.25z M3588.85,2965.87
			h-20.74v117.97l-102.58-117.97h-17.62v152.09h20.52v-117.08l101.69,117.08h18.73V2965.87z M3277.1,2965.87h-21.86v152.09h21.86
			V2965.87z M3085.99,2965.87h-20.74v117.97l-102.58-117.97h-17.62v152.09h20.52v-117.08l101.69,117.08h18.73V2965.87z
			 M2778.03,2974.56c-10.48-6.91-22.52-10.7-35.01-10.7c-27.43,0-44.82,17.39-44.82,40.36c0,9.59,2.9,16.73,7.58,22.75
			c6.69,8.47,13.6,12.71,37.69,27.21c7.14,4.24,20.07,13.6,20.07,26.32c0,12.93-12.27,20.07-23.64,20.07
			c-22.97,0-36.57-16.73-41.03-22.3v27.65c11.82,8.92,26.09,14.05,41.03,14.05c26.98,0,44.16-17.62,44.16-41.48
			c0-10.93-3.57-19.18-8.25-25.2c-5.8-7.81-13.16-13.16-19.63-16.95c-28.99-16.95-37.91-22.3-37.91-35.23
			c0-9.59,9.14-17.62,24.08-17.62c10.26,0,22.75,3.35,35.68,15.83V2974.56z M2535.63,2965.87h-21.86v152.09h21.86V2965.87z
			 M2360.35,2965.87h-21.63l-45.49,106.82l-45.72-106.82h-21.85l65.56,152.98h4.91L2360.35,2965.87z M2006.9,2984.38
			c39.7,0,58.87,31.89,58.87,57.09c0,13.16-5.58,29.66-15.17,40.14c-10.48,11.37-28.1,18.06-44.38,18.06
			c-31.89,0-59.1-22.75-59.1-57.31C1947.13,3016.93,1964.3,2984.38,2006.9,2984.38z M2006,2963.86c-51.96,0-81.4,38.13-81.4,78.5
			c0,42.37,32.56,77.61,80.28,77.61c49.73,0,83.18-34.57,83.18-78.28C2088.07,3000.88,2056.63,2963.86,2006,2963.86z
			 M1676.85,2985.27c13.83,0,24.08,0,36.57,5.58c23.19,10.26,31.67,31.44,31.67,49.95c0,20.74-10.04,39.25-25.42,48.84
			c-12.93,7.81-30.77,8.7-42.15,8.7h-28.1v-113.06H1676.85z M1627.79,2965.87v152.09h48.17c15.61,0,36.57,0,55.08-11.37
			c9.37-5.8,36.57-26.09,36.57-64.67c0-26.09-12.27-47.5-29.21-60.43c-20.29-15.61-45.05-15.61-59.32-15.61H1627.79z
			 M1461.22,2965.87h-86.3v152.09h88.31v-19.63h-66.46v-47.28h62.22v-19.4h-62.22v-46.39h64.45V2965.87z M1132.74,2984.38
			c13.16,0,20.29,0.89,25.87,3.57c7.14,3.35,11.6,11.6,11.6,20.29c0,8.25-4.24,17.84-14.5,21.85c-6.02,2.23-17.84,2.23-21.19,2.23
			h-8.47v-47.95H1132.74z M1104.42,2965.87v152.09h21.63v-66.23h5.8c10.48,0,17.84,0,32.78,19.18c4.91,6.47,26.09,39.7,31.22,47.05
			h25.87c-10.48-14.72-14.27-19.85-20.74-30.33c-11.6-18.73-20.07-32.78-33.9-41.92c16.5-6.47,25.42-19.85,25.42-37.47
			c0-15.39-7.58-30.55-23.86-37.46c-9.59-4.24-18.96-4.91-26.09-4.91H1104.42z"/>
	</g>
</g>
<path class="st0" d="M3896.02,1305.6l-2203.25-0.15l65.17,242.74l616.39,0.1l0.15,910.18l128.04,0.19v47.87l-37.82,0.19
	c-3.09-0.8-28.73,0.83-46.82,22.98c-11.44,14.01-33.28,51.46-43.38,77.14l0.02,143.14c12,4.41,25.04,6.82,38.5,5.43
	c47.13-4.87,49.28-92.04,49.28-92.04h44.81c0,0,2.17,79.53-27.45,122.43c-26.56,38.47-55.66,56.04-105.06,56.81
	c-0.02,0-0.04,0-0.06,0l0,0l233.33-0.03l-0.11-1294.37l1288.26,0.06L3896.02,1305.6z"/>
<g>
	<path class="st0" d="M1999.66,2694c13.77,28.3,33.29,49.87,55.17,63.72l-56.1-207.99c-2.88,3.78-5.58,7.75-8.01,11.89
		C1969.66,2597.62,1972.16,2637.48,1999.66,2694z"/>
	<path class="st0" d="M1952.74,2804.11c-44.96-36.06-69.77-76.02-72.06-140.11c-1.44-40.19,7.34-102.51,71.11-154.98
		c9.99-8.22,20.27-15.55,30.05-21.92L1663.1,1305.39l-145.23-0.07l-284.32,1054.64l-1023.52-0.81l0.08,247.68l957.47-0.03
		l-64.34,235.34h238.57l63.18-235.44l371.06,0.14l62.5,235.3l229.87,0.29C2016.94,2838.96,1980.03,2825.99,1952.74,2804.11z
		 M1471.53,2360.43l119.62-496.85l118.21,496.85H1471.53z"/>
</g>
</svg>
